<svg width="49" height="50" viewBox="0 0 49 50" fill="none" xmlns="http://www.w3.org/2000/svg">
<path d="M24.5002 33.3332C26.6661 33.3332 28.7433 32.4552 30.2749 30.8924C31.8064 29.3296 32.6668 27.21 32.6668 24.9998C32.6668 22.7897 31.8064 20.6701 30.2749 19.1073C28.7433 17.5445 26.6661 16.6665 24.5002 16.6665C22.3342 16.6665 20.257 17.5445 18.7255 19.1073C17.1939 20.6701 16.3335 22.7897 16.3335 24.9998C16.3335 27.21 17.1939 29.3296 18.7255 30.8924C20.257 32.4552 22.3342 33.3332 24.5002 33.3332Z" stroke="white" stroke-width="1.5" stroke-linecap="round" stroke-linejoin="round"/>
<path d="M6.125 33.3333V16.6667C6.125 13.904 7.20052 11.2545 9.11495 9.30097C11.0294 7.34747 13.6259 6.25 16.3333 6.25H32.6667C35.3741 6.25 37.9706 7.34747 39.885 9.30097C41.7995 11.2545 42.875 13.904 42.875 16.6667V33.3333C42.875 36.096 41.7995 38.7455 39.885 40.699C37.9706 42.6525 35.3741 43.75 32.6667 43.75H16.3333C13.6259 43.75 11.0294 42.6525 9.11495 40.699C7.20052 38.7455 6.125 36.096 6.125 33.3333Z" stroke="white" stroke-width="1.5"/>
<path d="M35.729 13.5625L35.7494 13.5396" stroke="white" stroke-width="1.5" stroke-linecap="round" stroke-linejoin="round"/>
</svg>
