<svg width="47" height="50" viewBox="0 0 47 50" fill="none" xmlns="http://www.w3.org/2000/svg">
<path d="M42.9757 5.7602C42.5536 5.38745 42.0444 5.14334 41.5024 5.05384C40.9603 4.96433 40.4056 5.03276 39.8971 5.25187L4.80969 20.3206C4.2427 20.5685 3.75997 20.994 3.42561 21.5405C3.09125 22.0871 2.92106 22.729 2.93763 23.3808C2.9542 24.0327 3.15676 24.6639 3.5184 25.1904C3.88005 25.717 4.38368 26.114 4.96244 26.3289L12.5334 29.1248L16.6361 43.5539C16.6439 43.5831 16.6694 43.6019 16.6811 43.6289C16.7239 43.7438 16.7856 43.8496 16.8632 43.9414C16.9826 44.0817 17.1356 44.1847 17.3058 44.2394C17.3254 44.2477 17.3391 44.2664 17.3587 44.2706H17.3704L17.3763 44.2727C17.5278 44.3072 17.6852 44.2986 17.8326 44.2477L17.8816 44.2373C18.0229 44.1841 18.1509 44.0972 18.2556 43.9831C18.2674 43.9685 18.2869 43.9664 18.2987 43.9539L24.1992 37.0248L32.8099 44.1185C33.3328 44.5539 33.9771 44.7894 34.641 44.7894C36.0784 44.7894 37.318 43.7185 37.6137 42.2248L44.0018 8.85395C44.1108 8.28744 44.0729 7.70005 43.8922 7.1547C43.7114 6.60935 43.3946 6.12659 42.9757 5.75812M18.7765 31.8644L17.392 39.0248L14.5034 28.8623L28.8286 20.9248L19.0429 31.3373C18.9075 31.4815 18.8149 31.6647 18.7765 31.8644ZM35.6946 41.806C35.6578 41.9949 35.576 42.1706 35.457 42.3162C35.338 42.4618 35.1858 42.5723 35.015 42.6373C34.8483 42.7045 34.668 42.7248 34.4917 42.6964C34.3154 42.6679 34.149 42.5916 34.0084 42.4748L24.6809 34.7894C24.4859 34.6292 24.2414 34.5532 23.996 34.5763C23.7506 34.5995 23.5225 34.7202 23.3571 34.9144L19.2504 39.7289L20.633 32.5894L34.7115 17.6102C34.8764 17.4342 34.9767 17.2014 34.9943 16.9536C35.012 16.7059 34.9458 16.4596 34.8078 16.2592C34.6698 16.0588 34.4689 15.9174 34.2415 15.8607C34.0142 15.804 33.7752 15.8356 33.5678 15.9498L13.2736 27.1956L5.60282 24.3581C5.40005 24.2856 5.2233 24.1482 5.09676 23.9647C4.97021 23.7812 4.90004 23.5606 4.89586 23.3331C4.88551 23.1031 4.943 22.8755 5.06028 22.682C5.17756 22.4885 5.34876 22.3388 5.54994 22.254L40.6315 7.1852C40.8115 7.1049 41.0088 7.07913 41.2017 7.11076C41.3945 7.14238 41.5754 7.23015 41.7243 7.36437C41.8724 7.49096 41.9843 7.65912 42.0473 7.84983C42.1103 8.04054 42.1218 8.24619 42.0807 8.44353L35.6946 41.806Z" fill="white"/>
</svg>
